<svg id="exchange" xmlns="http://www.w3.org/2000/svg" width="39.288" height="39.288" viewBox="0 0 39.288 39.288">
  <path id="XMLID_17_" d="M37.5,8.929H6.1l5.88-5.881A1.786,1.786,0,0,0,9.452.523L.523,9.452a1.786,1.786,0,0,0,0,2.525l8.929,8.929a1.786,1.786,0,1,0,2.525-2.525L6.1,12.5H37.5a1.786,1.786,0,0,0,0-3.572Z" transform="translate(0 0.001)" fill="#7700e0"/>
  <path id="XMLID_18_" d="M29.835,150.523a1.786,1.786,0,0,0-2.525,2.525l5.881,5.88H1.786a1.786,1.786,0,0,0,0,3.572h31.4l-5.88,5.881a1.786,1.786,0,1,0,2.525,2.525l8.929-8.929a1.786,1.786,0,0,0,0-2.526Z" transform="translate(0 -132.142)" fill="#7700e0"/>
</svg>
