<svg xmlns="http://www.w3.org/2000/svg" xmlns:xlink="http://www.w3.org/1999/xlink" width="356" height="356" viewBox="0 0 356 356">
  <defs>
    <filter id="Rectangle_16" x="0" y="0" width="356" height="356" filterUnits="userSpaceOnUse">
      <feOffset dy="3" input="SourceAlpha"/>
      <feGaussianBlur stdDeviation="3" result="blur"/>
      <feFlood flood-opacity="0.161"/>
      <feComposite operator="in" in2="blur"/>
      <feComposite in="SourceGraphic"/>
    </filter>
  </defs>
  <g id="Group_8" data-name="Group 8" transform="translate(-782 -365)">
    <g transform="matrix(1, 0, 0, 1, 782, 365)" filter="url(#Rectangle_16)">
      <rect id="Rectangle_16-2" data-name="Rectangle 16" width="338" height="338" rx="10" transform="translate(9 6)" fill="#fff"/>
    </g>
    <path id="Rectangle_14" data-name="Rectangle 14" d="M10,0H328a10,10,0,0,1,10,10V227a0,0,0,0,1,0,0H0a0,0,0,0,1,0,0V10A10,10,0,0,1,10,0Z" transform="translate(791 371)" fill="#eceeef"/>
    <g id="Group_2" data-name="Group 2" transform="translate(809.988 625.499)">
      <rect id="Rectangle_9" data-name="Rectangle 9" width="130" height="11" rx="5.5" transform="translate(60.012 -0.499)" fill="#eceeef"/>
      <rect id="Rectangle_10" data-name="Rectangle 10" width="69" height="11" rx="5.5" transform="translate(204.012 -0.499)" fill="#eceeef"/>
      <rect id="Rectangle_11" data-name="Rectangle 11" width="47" height="11" rx="5.5" transform="translate(0.012 -0.499)" fill="#eceeef"/>
      <rect id="Rectangle_9-2" data-name="Rectangle 9" width="138" height="12" rx="6" transform="translate(211.012 34.501) rotate(180)" fill="#eceeef"/>
      <rect id="Rectangle_10-2" data-name="Rectangle 10" width="63" height="12" rx="6" transform="translate(63.012 34.501) rotate(180)" fill="#eceeef"/>
      <rect id="Rectangle_12" data-name="Rectangle 12" width="63" height="12" rx="6" transform="translate(98.012 55.501) rotate(180)" fill="#eceeef"/>
      <rect id="Rectangle_11-2" data-name="Rectangle 11" width="26" height="12" rx="6" transform="translate(248.012 34.501) rotate(180)" fill="#eceeef"/>
      <rect id="Rectangle_13" data-name="Rectangle 13" width="26" height="12" rx="6" transform="translate(26.012 55.501) rotate(180)" fill="#eceeef"/>
    </g>
    <g id="Group_4" data-name="Group 4" transform="translate(897.041 440.51)">
      <path id="Polygon_1" data-name="Polygon 1" d="M33,0,66,49H0Z" transform="translate(-0.041 41.49)" fill="#d6d8d9"/>
      <path id="Polygon_2" data-name="Polygon 2" d="M52,0l52,77H0Z" transform="translate(45.959 13.49)" fill="#d6d8d9"/>
      <ellipse id="Ellipse_1" data-name="Ellipse 1" cx="11" cy="10.5" rx="11" ry="10.5" transform="translate(-0.041 0.49)" fill="#d6d8d9"/>
    </g>
  </g>
</svg>
