<?xml version="1.0" encoding="utf-8"?>
<!-- Generator: Adobe Illustrator 16.0.0, SVG Export Plug-In . SVG Version: 6.00 Build 0)  -->
<!DOCTYPE svg PUBLIC "-//W3C//DTD SVG 1.1//EN" "http://www.w3.org/Graphics/SVG/1.1/DTD/svg11.dtd">
<svg version="1.1" id="Layer_1" xmlns="http://www.w3.org/2000/svg" xmlns:xlink="http://www.w3.org/1999/xlink" x="0px" y="0px"
	 width="230.78px" height="69.464px" viewBox="0 0 230.78 69.464" enable-background="new 0 0 230.78 69.464" xml:space="preserve">
<g>
	<linearGradient id="SVGID_1_" gradientUnits="userSpaceOnUse" x1="8.8755" y1="88.4209" x2="8.8755" y2="9.7334">
		<stop  offset="0" style="stop-color:#FDFEFF;stop-opacity:0"/>
		<stop  offset="1" style="stop-color:#FDFEFF"/>
	</linearGradient>
	<path fill="url(#SVGID_1_)" d="M17.75,69.695v-32.72c-8.877,0-8.877-10.719-17.75-10.719v43.438H17.75z"/>
	<linearGradient id="SVGID_2_" gradientUnits="userSpaceOnUse" x1="62.1294" y1="77.3457" x2="62.1294" y2="32.3259">
		<stop  offset="0" style="stop-color:#FDFEFF;stop-opacity:0"/>
		<stop  offset="1" style="stop-color:#FDFEFF"/>
	</linearGradient>
	<path opacity="0.41" fill="url(#SVGID_2_)" d="M71.005,69.695V20.185c-0.002,0-0.005,0-0.007,0
		c-8.873,0-8.874,43.219-17.745,43.228v6.283H71.005z"/>
	<linearGradient id="SVGID_3_" gradientUnits="userSpaceOnUse" x1="115.3818" y1="88.4199" x2="115.3818" y2="9.7337">
		<stop  offset="0" style="stop-color:#FDFEFF;stop-opacity:0"/>
		<stop  offset="1" style="stop-color:#FDFEFF"/>
	</linearGradient>
	<path fill="url(#SVGID_3_)" d="M124.257,69.695V10.717c-0.001,0-0.003,0.001-0.003,0.001c-8.873,0-8.874,9.284-17.747,9.287v49.69
		H124.257z"/>
	<linearGradient id="SVGID_4_" gradientUnits="userSpaceOnUse" x1="79.8799" y1="88.4199" x2="79.8799" y2="9.734">
		<stop  offset="0" style="stop-color:#FDFEFF;stop-opacity:0"/>
		<stop  offset="1" style="stop-color:#FDFEFF"/>
	</linearGradient>
	<path fill="url(#SVGID_4_)" d="M88.755,69.695V30.902c-0.001,0-0.004,0-0.005,0c-8.872,0-8.874-10.713-17.745-10.718v49.511H88.755
		z"/>
	<linearGradient id="SVGID_5_" gradientUnits="userSpaceOnUse" x1="97.6309" y1="77.3457" x2="97.6309" y2="32.3251">
		<stop  offset="0" style="stop-color:#FDFEFF;stop-opacity:0"/>
		<stop  offset="1" style="stop-color:#FDFEFF"/>
	</linearGradient>
	<path opacity="0.41" fill="url(#SVGID_5_)" d="M106.507,69.695v-49.69c-0.002,0-0.003,0-0.005,0
		c-8.872,0-8.875,10.892-17.747,10.897v38.793H106.507z"/>
	<linearGradient id="SVGID_6_" gradientUnits="userSpaceOnUse" x1="26.6265" y1="77.3447" x2="26.6265" y2="32.3257">
		<stop  offset="0" style="stop-color:#FDFEFF;stop-opacity:0"/>
		<stop  offset="1" style="stop-color:#FDFEFF"/>
	</linearGradient>
	<path opacity="0.41" fill="url(#SVGID_6_)" d="M35.502,69.695V17.863c-0.001,0-0.002,0-0.003,0
		c-8.874,0-8.874,19.112-17.746,19.112c-0.001,0-0.001,0-0.002,0v32.72H35.502z"/>
	<linearGradient id="SVGID_7_" gradientUnits="userSpaceOnUse" x1="45.186" y1="88.7432" x2="45.186" y2="8.702">
		<stop  offset="0" style="stop-color:#FDFEFF;stop-opacity:0"/>
		<stop  offset="1" style="stop-color:#FDFEFF"/>
	</linearGradient>
	<path fill="url(#SVGID_7_)" d="M54.871,69.695v-6.392c0,0-0.001,0-0.002,0c-9.686,0-9.688-46.323-19.366-46.334v52.726H54.871z"/>
	<linearGradient id="SVGID_8_" gradientUnits="userSpaceOnUse" x1="204.1396" y1="77.3457" x2="204.1396" y2="32.3249">
		<stop  offset="0" style="stop-color:#FDFEFF;stop-opacity:0"/>
		<stop  offset="1" style="stop-color:#FDFEFF"/>
	</linearGradient>
	<path opacity="0.41" fill="url(#SVGID_8_)" d="M213.015,69.695V30.724c-0.001,0-0.005-0.001-0.006-0.001
		c-8.871,0-8.873,6.251-17.744,6.253v32.72H213.015z"/>
	<linearGradient id="SVGID_9_" gradientUnits="userSpaceOnUse" x1="133.1328" y1="77.3457" x2="133.1328" y2="32.3263">
		<stop  offset="0" style="stop-color:#FDFEFF;stop-opacity:0"/>
		<stop  offset="1" style="stop-color:#FDFEFF"/>
	</linearGradient>
	<path opacity="0.41" fill="url(#SVGID_9_)" d="M142.01,69.695V0.357c-0.004,0-0.007,0-0.01,0c-8.871,0-8.873,10.355-17.743,10.359
		v58.979H142.01z"/>
	<linearGradient id="SVGID_10_" gradientUnits="userSpaceOnUse" x1="186.3887" y1="88.4199" x2="186.3887" y2="9.7358">
		<stop  offset="0" style="stop-color:#FDFEFF;stop-opacity:0"/>
		<stop  offset="1" style="stop-color:#FDFEFF"/>
	</linearGradient>
	<path fill="url(#SVGID_10_)" d="M195.265,69.695v-32.72c-0.004,0-0.005,0-0.009,0c-8.869,0-8.872-18.745-17.743-18.755v51.475
		H195.265z"/>
	<linearGradient id="SVGID_11_" gradientUnits="userSpaceOnUse" x1="221.8906" y1="88.4199" x2="221.8906" y2="9.7342">
		<stop  offset="0" style="stop-color:#FDFEFF;stop-opacity:0"/>
		<stop  offset="1" style="stop-color:#FDFEFF"/>
	</linearGradient>
	<path fill="url(#SVGID_11_)" d="M230.766,69.695v-32.72l0,0c-8.876,0-8.878-6.249-17.751-6.252v38.972H230.766z"/>
	<linearGradient id="SVGID_12_" gradientUnits="userSpaceOnUse" x1="150.8848" y1="88.4199" x2="150.8848" y2="9.7339">
		<stop  offset="0" style="stop-color:#FDFEFF;stop-opacity:0"/>
		<stop  offset="1" style="stop-color:#FDFEFF"/>
	</linearGradient>
	<path fill="url(#SVGID_12_)" d="M159.76,69.695V41.978c-0.003,0-0.005,0-0.008,0c-8.871,0-8.873-41.592-17.742-41.62v69.338H159.76
		z"/>
	<linearGradient id="SVGID_13_" gradientUnits="userSpaceOnUse" x1="168.6367" y1="77.3447" x2="168.6367" y2="32.3259">
		<stop  offset="0" style="stop-color:#FDFEFF;stop-opacity:0"/>
		<stop  offset="1" style="stop-color:#FDFEFF"/>
	</linearGradient>
	<path opacity="0.41" fill="url(#SVGID_13_)" d="M177.513,69.695V18.221c-0.002,0-0.005,0-0.007,0
		c-8.873,0-8.876,23.742-17.746,23.757v27.718H177.513z"/>
	<linearGradient id="SVGID_14_" gradientUnits="userSpaceOnUse" x1="0" y1="31.8848" x2="248.5176" y2="31.8848">
		<stop  offset="0" style="stop-color:#069EFC"/>
		<stop  offset="1" style="stop-color:#14F4C9"/>
	</linearGradient>
	<path fill="url(#SVGID_14_)" d="M230.763,36.96c0-0.289-0.297-0.518-0.667-0.533c-3.734-0.146-5.689-1.523-7.751-2.975
		c-2.279-1.605-4.635-3.265-9.336-3.265c-4.698,0-7.054,1.659-9.332,3.263c-2.182,1.538-4.242,2.989-8.421,2.989
		c-3.96,0-6.131-4.588-8.23-9.026c-2.265-4.783-4.605-9.729-9.52-9.729c-4.95,0-7.176,5.955-9.531,12.262
		c-2.111,5.651-4.295,11.497-8.223,11.497c-3.855,0-6.265-11.289-8.198-20.359C149.122,9.676,147.02-0.179,142-0.179
		c-4.801,0-7.161,2.754-9.44,5.417c-2.178,2.543-4.234,4.943-8.306,4.943c-4.778,0-7.139,2.472-9.42,4.858
		c-2.178,2.277-4.234,4.43-8.332,4.43c-4.812,0-7.17,2.896-9.449,5.695c-2.18,2.676-4.238,5.202-8.303,5.202
		s-6.122-2.484-8.299-5.114c-2.282-2.755-4.643-5.604-9.453-5.604c-5.02,0-7.118,10.227-9.549,22.063
		c-1.935,9.43-4.344,21.164-8.198,21.164c-3.852,0-6.265-12.378-8.202-22.324c-2.428-12.463-4.526-23.226-9.55-23.226
		c-4.916,0-7.254,5.039-9.516,9.911c-2.101,4.522-4.273,9.202-8.23,9.202c-4.069,0-6.126-2.485-8.306-5.115
		C7.167,28.569,4.808,25.723,0,25.723v1.071c4.064,0,6.122,2.483,8.299,5.113c2.282,2.756,4.642,5.605,9.454,5.605
		c4.916,0,7.254-5.038,9.516-9.911c2.101-4.523,4.272-9.203,8.23-9.203c3.849,0,6.261,12.373,8.197,22.316
		c2.43,12.466,4.528,23.233,9.555,23.233c5.02,0,7.119-10.224,9.549-22.065c1.936-9.429,4.344-21.162,8.198-21.162
		c4.068,0,6.126,2.485,8.305,5.116c2.281,2.753,4.64,5.602,9.447,5.602c4.814,0,7.174-2.895,9.455-5.695
		c2.178-2.676,4.235-5.202,8.297-5.202c4.781,0,7.143-2.47,9.427-4.858c2.174-2.279,4.232-4.43,8.325-4.43
		c4.802,0,7.159-2.752,9.442-5.417c2.176-2.542,4.234-4.942,8.304-4.942c3.861,0,6.27,11.291,8.206,20.366
		c2.43,11.405,4.531,21.253,9.546,21.253c4.953,0,7.179-5.958,9.536-12.266c2.109-5.649,4.292-11.49,8.218-11.49
		c3.964,0,6.136,4.59,8.237,9.029c2.262,4.78,4.603,9.727,9.513,9.727c4.703,0,7.059-1.66,9.337-3.267
		c2.181-1.536,4.241-2.987,8.416-2.987c4.178,0,6.238,1.451,8.421,2.989c2.16,1.522,4.391,3.093,8.625,3.251
		C230.44,37.514,230.763,37.263,230.763,36.96L230.763,36.96z"/>
</g>
</svg>
