<?xml version="1.0" encoding="utf-8"?>
<!-- Generator: Adobe Illustrator 16.0.0, SVG Export Plug-In . SVG Version: 6.00 Build 0)  -->
<!DOCTYPE svg PUBLIC "-//W3C//DTD SVG 1.1//EN" "http://www.w3.org/Graphics/SVG/1.1/DTD/svg11.dtd">
<svg version="1.1" id="Layer_1" xmlns="http://www.w3.org/2000/svg" xmlns:xlink="http://www.w3.org/1999/xlink" x="0px" y="0px"
	 width="16.76px" height="31px" viewBox="0 0 16.76 31" enable-background="new 0 0 16.76 31" xml:space="preserve">
<g id="facebook" transform="translate(-22.077)">
	<g>
		<path id="Path_90_8_" fill="#476FB0" d="M38.206,0.006L34.185,0c-4.516,0-7.435,2.994-7.435,7.629v3.518h-4.042
			c-0.349,0-0.632,0.283-0.632,0.632v5.1c0,0.35,0.283,0.632,0.632,0.632h4.042v12.86c0,0.35,0.283,0.632,0.632,0.632h5.274
			c0.349,0,0.632-0.282,0.632-0.632V17.508h4.727c0.349,0,0.631-0.283,0.631-0.632v-5.1c0-0.349-0.283-0.631-0.631-0.632h-4.727
			V8.165C33.289,6.732,33.631,6,35.5,6h2.708c0.349,0,0.632-0.283,0.632-0.632V0.639c0.001-0.349-0.281-0.633-0.631-0.633
			C38.208,0.006,38.207,0.006,38.206,0.006z"/>
	</g>
</g>
</svg>
