<?xml version="1.0" encoding="utf-8"?>
<!-- Generator: Adobe Illustrator 16.0.0, SVG Export Plug-In . SVG Version: 6.00 Build 0)  -->
<!DOCTYPE svg PUBLIC "-//W3C//DTD SVG 1.1//EN" "http://www.w3.org/Graphics/SVG/1.1/DTD/svg11.dtd">
<svg version="1.1" id="Layer_1" xmlns="http://www.w3.org/2000/svg" xmlns:xlink="http://www.w3.org/1999/xlink" x="0px" y="0px"
	 width="512px" height="512px" viewBox="0 0 512 512" enable-background="new 0 0 512 512" xml:space="preserve">
<path fill="#A3A3A3" d="M204.5,458.605v51.855l-12.539-10.129c-1.938-1.566-48.035-38.992-94.781-92.66
	C32.695,333.637,0,267.18,0,210.152V204.5C0,91.738,91.738,0,204.5,0S409,91.738,409,204.5v5.652c0,4.789-0.254,9.652-0.715,14.574
	l-39.992-36.484c-8.191-83.156-78.52-148.34-163.793-148.34c-90.758,0-164.598,73.84-164.598,164.598v5.652
	C39.902,306.52,164.066,423.18,204.5,458.605z M327.199,429.945h59.852v-59.852h-59.852V429.945z M204.5,119.707
	c46.754,0,84.793,38.039,84.793,84.793s-38.039,84.793-84.793,84.793s-84.793-38.039-84.793-84.793S157.746,119.707,204.5,119.707z
	 M204.5,159.609c-24.754,0-44.891,20.137-44.891,44.891c0,24.75,20.137,44.891,44.891,44.891c24.75,0,44.891-20.141,44.891-44.891
	C249.391,179.746,229.25,159.609,204.5,159.609z M485.109,402.832l-11.219-10.234v64.059c0,29.828-24.27,54.094-54.098,54.094
	H293.461c-29.828,0-54.098-24.266-54.098-54.094v-64.059l-11.219,10.234l-26.891-29.477l155.371-141.746L512,373.355
	L485.109,402.832z M433.988,356.195l-77.363-70.574l-77.359,70.574v100.457c0,7.828,6.367,14.195,14.195,14.195h126.332
	c7.828,0,14.195-6.367,14.195-14.195V356.195z"/>
</svg>
