<?xml version="1.0" encoding="utf-8"?>
<!-- Generator: Adobe Illustrator 16.0.0, SVG Export Plug-In . SVG Version: 6.00 Build 0)  -->
<!DOCTYPE svg PUBLIC "-//W3C//DTD SVG 1.1//EN" "http://www.w3.org/Graphics/SVG/1.1/DTD/svg11.dtd">
<svg version="1.1" id="Layer_1" xmlns="http://www.w3.org/2000/svg" xmlns:xlink="http://www.w3.org/1999/xlink" x="0px" y="0px"
	 width="144px" height="144px" viewBox="0 0 144 144" enable-background="new 0 0 144 144" xml:space="preserve">
<rect x="0.244" y="-0.14" fill="#EAEAEA" width="143.756" height="144.232"/>
<path fill="#CCCCCC" d="M90.6,51.104c-5.065-4.744-11.521-7.248-18.726-7.248c-15.517,0-28.142,12.627-28.142,28.147
	c0,15.513,12.625,28.132,28.142,28.132c7.392,0,14.396-2.914,19.615-8.092v3.391c0,2.598,1.963,4.711,4.373,4.711
	c2.469,0,4.399-2.072,4.399-4.711v-0.951h0.006V75.35c-0.106-2.254-1.937-4.001-4.411-4.171l-16.452,0.009
	c-2.599,0-4.715,1.971-4.715,4.373c0,2.467,2.071,4.402,4.703,4.402l9.67,0.004C86,86.76,79.245,91.219,71.774,91.219
	c-10.542,0-19.125-8.574-19.125-19.116c0-10.554,8.583-19.146,19.125-19.146c5.409,0,10.613,2.379,14.293,6.532l1.171,1.268
	c1.737,1.936,4.849,2.226,6.648,0.604c0.923-0.832,1.436-1.994,1.447-3.268c0.013-1.237-0.539-2.385-1.328-3.408
	C93.152,53.563,90.6,51.104,90.6,51.104z"/>
</svg>
