<?xml version="1.0" encoding="utf-8"?>
<!-- Generator: Adobe Illustrator 16.0.0, SVG Export Plug-In . SVG Version: 6.00 Build 0)  -->
<!DOCTYPE svg PUBLIC "-//W3C//DTD SVG 1.1//EN" "http://www.w3.org/Graphics/SVG/1.1/DTD/svg11.dtd">
<svg version="1.1" id="Layer_1" xmlns="http://www.w3.org/2000/svg" xmlns:xlink="http://www.w3.org/1999/xlink" x="0px" y="0px"
	 width="137px" height="44px" viewBox="0 0 137 44" enable-background="new 0 0 137 44" xml:space="preserve">
<g>
	<path id="Rectangle_25" fill="#ECEEEF" d="M10,0h117c5.523,0,10,4.477,10,10v24c0,5.523-4.477,10-10,10H10C4.477,44,0,39.523,0,34
		V10C0,4.477,4.477,0,10,0z"/>
	<g enable-background="new    ">
		<path fill="#404F5B" d="M24.318,27l-0.014-6.496l-3.22,5.376h-0.812l-3.22-5.292V27h-1.736v-9.8h1.498l3.892,6.496l3.822-6.496
			h1.498L26.04,27H24.318z"/>
		<path fill="#404F5B" d="M33.9,20.231c0.583,0.527,0.875,1.322,0.875,2.387V27h-1.652v-0.91c-0.215,0.327-0.521,0.576-0.917,0.749
			s-0.875,0.259-1.435,0.259s-1.05-0.096-1.47-0.287c-0.42-0.19-0.745-0.457-0.973-0.798c-0.229-0.34-0.343-0.726-0.343-1.154
			c0-0.673,0.25-1.211,0.749-1.617c0.499-0.406,1.285-0.609,2.359-0.609h1.932V22.52c0-0.522-0.156-0.924-0.469-1.203
			c-0.313-0.28-0.777-0.42-1.393-0.42c-0.42,0-0.833,0.064-1.239,0.195c-0.406,0.131-0.749,0.313-1.029,0.546l-0.686-1.273
			c0.392-0.299,0.863-0.527,1.414-0.687c0.551-0.158,1.134-0.237,1.75-0.237C32.475,19.44,33.317,19.704,33.9,20.231z
			 M32.305,25.523c0.34-0.201,0.581-0.488,0.721-0.861v-0.868H31.22c-1.008,0-1.512,0.331-1.512,0.994
			c0,0.317,0.126,0.569,0.378,0.756s0.602,0.28,1.05,0.28C31.574,25.824,31.964,25.724,32.305,25.523z"/>
		<path fill="#404F5B" d="M43.526,20.266c0.569,0.551,0.854,1.368,0.854,2.45V27h-1.75v-4.06c0-0.653-0.154-1.146-0.462-1.478
			c-0.308-0.331-0.747-0.497-1.316-0.497c-0.644,0-1.153,0.194-1.526,0.581c-0.374,0.388-0.56,0.945-0.56,1.673V27h-1.75v-7.476
			h1.666v0.966c0.289-0.346,0.653-0.606,1.092-0.784c0.439-0.177,0.934-0.266,1.484-0.266C42.2,19.44,42.956,19.716,43.526,20.266z"
			/>
		<path fill="#404F5B" d="M51.988,20.231c0.583,0.527,0.875,1.322,0.875,2.387V27h-1.652v-0.91
			c-0.215,0.327-0.521,0.576-0.917,0.749s-0.875,0.259-1.435,0.259s-1.05-0.096-1.47-0.287c-0.42-0.19-0.745-0.457-0.973-0.798
			c-0.229-0.34-0.343-0.726-0.343-1.154c0-0.673,0.25-1.211,0.749-1.617c0.499-0.406,1.285-0.609,2.359-0.609h1.932V22.52
			c0-0.522-0.156-0.924-0.469-1.203c-0.313-0.28-0.777-0.42-1.393-0.42c-0.42,0-0.833,0.064-1.239,0.195
			c-0.406,0.131-0.749,0.313-1.029,0.546l-0.686-1.273c0.392-0.299,0.863-0.527,1.414-0.687c0.551-0.158,1.134-0.237,1.75-0.237
			C50.563,19.44,51.405,19.704,51.988,20.231z M50.393,25.523c0.34-0.201,0.581-0.488,0.721-0.861v-0.868h-1.806
			c-1.008,0-1.512,0.331-1.512,0.994c0,0.317,0.126,0.569,0.378,0.756s0.602,0.28,1.05,0.28
			C49.662,25.824,50.052,25.724,50.393,25.523z"/>
		<path fill="#404F5B" d="M62.593,19.524v6.342c0,2.632-1.344,3.948-4.032,3.948c-0.719,0-1.4-0.092-2.044-0.273
			s-1.176-0.446-1.596-0.791l0.784-1.316c0.327,0.271,0.739,0.488,1.239,0.651c0.499,0.163,1.006,0.245,1.519,0.245
			c0.821,0,1.423-0.187,1.806-0.561c0.382-0.373,0.574-0.942,0.574-1.708V25.67c-0.299,0.327-0.663,0.574-1.092,0.742
			c-0.43,0.168-0.901,0.252-1.414,0.252c-0.709,0-1.351-0.151-1.925-0.455c-0.574-0.303-1.027-0.73-1.358-1.281
			c-0.331-0.551-0.497-1.181-0.497-1.89s0.166-1.337,0.497-1.883c0.332-0.546,0.784-0.969,1.358-1.268
			c0.574-0.298,1.215-0.447,1.925-0.447c0.541,0,1.034,0.089,1.477,0.266c0.443,0.178,0.814,0.448,1.113,0.812v-0.993H62.593z
			 M60.234,24.585c0.425-0.396,0.637-0.912,0.637-1.547c0-0.625-0.212-1.134-0.637-1.526c-0.425-0.392-0.968-0.588-1.631-0.588
			c-0.672,0-1.221,0.196-1.645,0.588c-0.425,0.393-0.637,0.901-0.637,1.526c0,0.635,0.212,1.15,0.637,1.547
			c0.424,0.396,0.973,0.595,1.645,0.595C59.266,25.18,59.81,24.981,60.234,24.585z"/>
		<path fill="#404F5B" d="M64.973,17.991c-0.215-0.201-0.322-0.45-0.322-0.749s0.107-0.549,0.322-0.749
			c0.215-0.201,0.48-0.301,0.798-0.301s0.583,0.096,0.798,0.286c0.214,0.191,0.322,0.433,0.322,0.722
			c0,0.308-0.105,0.566-0.315,0.776s-0.479,0.315-0.805,0.315C65.454,18.292,65.188,18.191,64.973,17.991z M64.889,19.524h1.75V27
			h-1.75V19.524z"/>
		<path fill="#404F5B" d="M75.445,20.266c0.568,0.551,0.854,1.368,0.854,2.45V27h-1.75v-4.06c0-0.653-0.154-1.146-0.462-1.478
			s-0.747-0.497-1.315-0.497c-0.645,0-1.153,0.194-1.526,0.581c-0.374,0.388-0.56,0.945-0.56,1.673V27h-1.75v-7.476h1.667v0.966
			c0.289-0.346,0.652-0.606,1.092-0.784c0.438-0.177,0.934-0.266,1.484-0.266C74.119,19.44,74.875,19.716,75.445,20.266z"/>
		<path fill="#404F5B" d="M86.015,19.524v6.342c0,2.632-1.344,3.948-4.032,3.948c-0.719,0-1.399-0.092-2.043-0.273
			c-0.645-0.182-1.177-0.446-1.597-0.791l0.784-1.316c0.326,0.271,0.739,0.488,1.238,0.651c0.5,0.163,1.006,0.245,1.52,0.245
			c0.821,0,1.424-0.187,1.807-0.561c0.382-0.373,0.573-0.942,0.573-1.708V25.67c-0.299,0.327-0.663,0.574-1.092,0.742
			c-0.43,0.168-0.901,0.252-1.414,0.252c-0.71,0-1.351-0.151-1.925-0.455c-0.574-0.303-1.027-0.73-1.358-1.281
			s-0.497-1.181-0.497-1.89s0.166-1.337,0.497-1.883s0.784-0.969,1.358-1.268c0.574-0.298,1.215-0.447,1.925-0.447
			c0.541,0,1.034,0.089,1.478,0.266c0.443,0.178,0.813,0.448,1.112,0.812v-0.993H86.015z M83.656,24.585
			c0.424-0.396,0.637-0.912,0.637-1.547c0-0.625-0.213-1.134-0.637-1.526c-0.426-0.392-0.969-0.588-1.631-0.588
			c-0.673,0-1.221,0.196-1.646,0.588c-0.425,0.393-0.638,0.901-0.638,1.526c0,0.635,0.213,1.15,0.638,1.547s0.973,0.595,1.646,0.595
			C82.688,25.18,83.23,24.981,83.656,24.585z"/>
		<path fill="#404F5B" d="M96.668,26.594c-0.205,0.168-0.455,0.294-0.748,0.378c-0.295,0.084-0.605,0.126-0.932,0.126
			c-0.821,0-1.456-0.214-1.904-0.644c-0.447-0.43-0.672-1.055-0.672-1.876V20.98H91.18v-1.4h1.232v-1.708h1.75v1.708h2.002v1.4
			h-2.002v3.556c0,0.364,0.089,0.642,0.266,0.833c0.178,0.191,0.435,0.287,0.771,0.287c0.392,0,0.719-0.103,0.979-0.309
			L96.668,26.594z"/>
		<path fill="#404F5B" d="M103.493,20.231c0.583,0.527,0.875,1.322,0.875,2.387V27h-1.651v-0.91
			c-0.215,0.327-0.521,0.576-0.918,0.749s-0.875,0.259-1.435,0.259s-1.05-0.096-1.47-0.287c-0.42-0.19-0.744-0.457-0.973-0.798
			c-0.229-0.34-0.344-0.726-0.344-1.154c0-0.673,0.25-1.211,0.75-1.617c0.498-0.406,1.285-0.609,2.358-0.609h1.932V22.52
			c0-0.522-0.156-0.924-0.469-1.203c-0.313-0.28-0.776-0.42-1.394-0.42c-0.42,0-0.832,0.064-1.238,0.195s-0.749,0.313-1.029,0.546
			l-0.686-1.273c0.392-0.299,0.863-0.527,1.414-0.687c0.551-0.158,1.134-0.237,1.75-0.237
			C102.067,19.44,102.91,19.704,103.493,20.231z M101.897,25.523c0.341-0.201,0.581-0.488,0.721-0.861v-0.868h-1.806
			c-1.008,0-1.512,0.331-1.512,0.994c0,0.317,0.125,0.569,0.377,0.756s0.603,0.28,1.051,0.28
			C101.167,25.824,101.557,25.724,101.897,25.523z"/>
		<path fill="#404F5B" d="M114.098,19.524v6.342c0,2.632-1.344,3.948-4.031,3.948c-0.719,0-1.4-0.092-2.044-0.273
			s-1.177-0.446-1.597-0.791l0.785-1.316c0.326,0.271,0.738,0.488,1.238,0.651c0.499,0.163,1.006,0.245,1.52,0.245
			c0.82,0,1.423-0.187,1.806-0.561c0.382-0.373,0.573-0.942,0.573-1.708V25.67c-0.299,0.327-0.662,0.574-1.092,0.742
			s-0.9,0.252-1.414,0.252c-0.709,0-1.351-0.151-1.924-0.455c-0.574-0.303-1.027-0.73-1.359-1.281
			c-0.33-0.551-0.496-1.181-0.496-1.89s0.166-1.337,0.496-1.883c0.332-0.546,0.785-0.969,1.359-1.268
			c0.573-0.298,1.215-0.447,1.924-0.447c0.541,0,1.034,0.089,1.478,0.266c0.443,0.178,0.813,0.448,1.112,0.812v-0.993H114.098z
			 M111.739,24.585c0.425-0.396,0.638-0.912,0.638-1.547c0-0.625-0.213-1.134-0.638-1.526c-0.425-0.392-0.968-0.588-1.631-0.588
			c-0.673,0-1.221,0.196-1.646,0.588c-0.424,0.393-0.637,0.901-0.637,1.526c0,0.635,0.213,1.15,0.637,1.547
			c0.425,0.396,0.973,0.595,1.646,0.595C110.771,25.18,111.314,24.981,111.739,24.585z"/>
		<path fill="#404F5B" d="M116.926,26.86c-0.578-0.159-1.041-0.359-1.386-0.603l0.672-1.33c0.336,0.225,0.739,0.404,1.211,0.539
			c0.472,0.136,0.937,0.203,1.394,0.203c1.045,0,1.568-0.275,1.568-0.826c0-0.261-0.134-0.443-0.4-0.546
			c-0.266-0.103-0.692-0.2-1.28-0.294c-0.616-0.093-1.118-0.2-1.505-0.322c-0.388-0.121-0.724-0.333-1.008-0.637
			c-0.285-0.303-0.428-0.726-0.428-1.267c0-0.71,0.297-1.276,0.89-1.701s1.393-0.637,2.401-0.637c0.513,0,1.025,0.058,1.539,0.175
			c0.514,0.116,0.934,0.272,1.26,0.469l-0.672,1.33c-0.635-0.373-1.348-0.561-2.142-0.561c-0.513,0-0.903,0.077-1.169,0.231
			s-0.398,0.357-0.398,0.609c0,0.279,0.142,0.479,0.426,0.595c0.285,0.117,0.727,0.227,1.324,0.329
			c0.597,0.093,1.086,0.2,1.469,0.322c0.383,0.121,0.713,0.326,0.988,0.615c0.274,0.29,0.412,0.7,0.412,1.232
			c0,0.7-0.303,1.26-0.91,1.68c-0.606,0.42-1.432,0.63-2.478,0.63C118.098,27.098,117.505,27.019,116.926,26.86z"/>
	</g>
</g>
</svg>
