<?xml version="1.0" encoding="utf-8"?>
<!-- Generator: Adobe Illustrator 16.0.0, SVG Export Plug-In . SVG Version: 6.00 Build 0)  -->
<!DOCTYPE svg PUBLIC "-//W3C//DTD SVG 1.1//EN" "http://www.w3.org/Graphics/SVG/1.1/DTD/svg11.dtd">
<svg version="1.1" id="Layer_1" xmlns="http://www.w3.org/2000/svg" xmlns:xlink="http://www.w3.org/1999/xlink" x="0px" y="0px"
	 width="23.57px" height="29.018px" viewBox="0 0 23.57 29.018" enable-background="new 0 0 23.57 29.018" xml:space="preserve">
<path id="pinterest" fill="#EE1B22" d="M12.181,0c-13.67,0-14.83,14.634-8.436,17.46c0.658,0.3,0.571-0.065,1.136-2.229
	c0.052-0.177,0.005-0.367-0.123-0.5c-3.3-3.811-0.643-11.646,6.952-11.646c10.991,0,8.938,15.209,1.912,15.209
	c-1.428,0.114-2.679-0.95-2.794-2.378c-0.021-0.269-0.001-0.54,0.062-0.802c0.517-2.096,1.529-4.348,1.529-5.856
	c0-3.81-5.669-3.246-5.669,1.796c-0.011,0.9,0.178,1.791,0.551,2.61c0,0-1.823,7.369-2.161,8.745c-0.39,1.581-0.2,7.407,0.481,6.516
	c1.261-1.734,2.271-3.639,3-5.655c0.226-0.828,1.147-4.188,1.147-4.188c0.989,1.331,2.573,2.087,4.23,2.018
	c5.556,0,9.571-4.883,9.571-10.942C23.551,4.347,18.58,0,12.181,0z"/>
</svg>
