<?xml version="1.0" encoding="utf-8"?>
<!-- Generator: Adobe Illustrator 16.0.0, SVG Export Plug-In . SVG Version: 6.00 Build 0)  -->
<!DOCTYPE svg PUBLIC "-//W3C//DTD SVG 1.1//EN" "http://www.w3.org/Graphics/SVG/1.1/DTD/svg11.dtd">
<svg version="1.1" id="Layer_1" xmlns="http://www.w3.org/2000/svg" xmlns:xlink="http://www.w3.org/1999/xlink" x="0px" y="0px"
	 width="33.725px" height="27.4px" viewBox="0 0 33.725 27.4" enable-background="new 0 0 33.725 27.4" xml:space="preserve">
<path id="twitter" fill="#1DA1F2" d="M33.724,3.244c-1.27,0.553-2.611,0.921-3.984,1.092c1.447-0.858,2.53-2.218,3.042-3.821
	c-1.354,0.804-2.837,1.369-4.382,1.673c-2.609-2.786-6.984-2.931-9.771-0.32c-1.396,1.308-2.188,3.136-2.188,5.049
	c-0.006,0.529,0.048,1.059,0.16,1.577C11.037,8.221,5.853,5.59,2.348,1.26C0.502,4.417,1.432,8.466,4.473,10.5
	c-1.095-0.029-2.166-0.322-3.124-0.853v0.076c0.004,3.291,2.316,6.127,5.539,6.793c-0.592,0.156-1.202,0.232-1.813,0.229
	c-0.439,0.008-0.878-0.032-1.309-0.118c0.915,2.812,3.504,4.741,6.46,4.815c-2.447,1.914-5.466,2.952-8.572,2.949
	C1.101,24.397,0.549,24.365,0,24.3c3.162,2.036,6.846,3.113,10.606,3.1c12.722,0,19.678-10.539,19.678-19.674
	c0-0.306-0.011-0.6-0.025-0.894C31.623,5.857,32.797,4.641,33.724,3.244z"/>
</svg>
