<?xml version="1.0" encoding="utf-8"?>
<!-- Generator: Adobe Illustrator 16.0.0, SVG Export Plug-In . SVG Version: 6.00 Build 0)  -->
<!DOCTYPE svg PUBLIC "-//W3C//DTD SVG 1.1//EN" "http://www.w3.org/Graphics/SVG/1.1/DTD/svg11.dtd">
<svg version="1.1" id="Layer_1" xmlns="http://www.w3.org/2000/svg" xmlns:xlink="http://www.w3.org/1999/xlink" x="0px" y="0px"
	 width="27.434px" height="27.657px" viewBox="0 0 27.434 27.657" enable-background="new 0 0 27.434 27.657" xml:space="preserve">
<g id="whatsapp" transform="translate(-1.69 0)">
	<g>
		<path id="Path_88_8_" fill="#25D366" d="M14.736,0.016C7.167,0.389,1.333,6.828,1.707,14.397c0.095,1.934,0.599,3.824,1.477,5.549
			l-1.456,7.069c-0.06,0.288,0.127,0.571,0.415,0.63c0.076,0.016,0.155,0.015,0.23-0.003L9.3,26
			c6.784,3.373,15.019,0.609,18.393-6.174s0.609-15.018-6.174-18.392C19.417,0.389,17.081-0.099,14.736,0.016z M23,21.312
			c-3.263,3.261-8.242,4.077-12.375,2.026L9.66,22.857l-4.245,1.006l0.895-4.34l-0.476-0.931c-2.108-4.146-1.31-9.179,1.979-12.47
			c4.194-4.194,10.995-4.194,15.188,0.001C27.195,10.317,27.194,17.118,23,21.312z"/>
		<path id="Path_89_8_" fill="#25D366" d="M22.064,16.688l-2.657-0.764c-0.35-0.1-0.726,0-0.98,0.259l-0.649,0.662
			c-0.273,0.28-0.688,0.367-1.052,0.222c-1.801-0.997-3.361-2.374-4.576-4.035c-0.194-0.34-0.163-0.764,0.077-1.073l0.566-0.734
			c0.223-0.288,0.27-0.674,0.122-1.006l-1.118-2.528c-0.222-0.5-0.807-0.726-1.308-0.504c-0.086,0.038-0.167,0.089-0.239,0.15
			c-0.877,0.64-1.491,1.577-1.728,2.636c-0.189,1.862,0.609,4.208,3.629,7.025c3.488,3.256,6.281,3.686,8.1,3.246
			c1.018-0.379,1.862-1.115,2.376-2.072c0.294-0.461,0.158-1.074-0.304-1.367C22.243,16.753,22.156,16.714,22.064,16.688z"/>
	</g>
</g>
</svg>
