<svg xmlns="http://www.w3.org/2000/svg" width="338" height="227" viewBox="0 0 338 227">
  <g id="Group_87" data-name="Group 87" transform="translate(-791 -371)">
    <path id="Rectangle_14" data-name="Rectangle 14" d="M10,0H328a10,10,0,0,1,10,10V227a0,0,0,0,1,0,0H0a0,0,0,0,1,0,0V10A10,10,0,0,1,10,0Z" transform="translate(791 371)" fill="#eceeef"/>
    <g id="Group_4" data-name="Group 4" transform="translate(897.041 440.51)">
      <path id="Polygon_1" data-name="Polygon 1" d="M33,0,66,49H0Z" transform="translate(-0.041 41.49)" fill="#d6d8d9"/>
      <path id="Polygon_2" data-name="Polygon 2" d="M52,0l52,77H0Z" transform="translate(45.959 13.49)" fill="#d6d8d9"/>
      <ellipse id="Ellipse_1" data-name="Ellipse 1" cx="11" cy="10.5" rx="11" ry="10.5" transform="translate(-0.041 0.49)" fill="#d6d8d9"/>
    </g>
  </g>
</svg>
