<svg xmlns="http://www.w3.org/2000/svg" width="78.104" height="52.42" viewBox="0 0 78.104 52.42">
  <g id="Group_93" data-name="Group 93" transform="translate(-920.797 -422.888)">
    <path id="Path_98" data-name="Path 98" d="M67.367,90.872a5.5,5.5,0,0,0,8.787-6.608,28.05,28.05,0,0,1,.721-34.637,5.5,5.5,0,0,0-8.505-6.968,39.045,39.045,0,0,0-1,48.213Zm0,0" transform="translate(861.27 382.243)" fill="#3f8cd9"/>
    <path id="Path_100" data-name="Path 100" d="M229.591,67.4a28.216,28.216,0,0,1-5.632,16.86,5.5,5.5,0,1,0,8.787,6.608,39.045,39.045,0,0,0-1-48.213,5.5,5.5,0,1,0-8.5,6.967A28.132,28.132,0,0,1,229.591,67.4Zm0,0" transform="translate(758.315 382.243)" fill="#3f8cd9"/>
  </g>
</svg>
