<svg xmlns="http://www.w3.org/2000/svg" width="121.714" height="82.062" viewBox="0 0 121.714 82.062">
  <g id="Group_94" data-name="Group 94" transform="translate(-898.992 -408)">
    <path id="Path_99" data-name="Path 99" d="M17.9,82.064A5.5,5.5,0,0,0,22.166,73.1a49.856,49.856,0,0,1,.93-64.01,5.5,5.5,0,0,0-8.326-7.18,60.849,60.849,0,0,0-1.135,78.126A5.484,5.484,0,0,0,17.9,82.064Zm0,0" transform="translate(898.992 407.998)" fill="#4aafff"/>
    <path id="Path_101" data-name="Path 101" d="M279.02,41.647A50,50,0,0,1,267.849,73.1a5.5,5.5,0,1,0,8.531,6.934,60.847,60.847,0,0,0-1.135-78.124,5.5,5.5,0,0,0-8.326,7.18,49.871,49.871,0,0,1,12.1,32.559Zm0,0" transform="translate(730.691 407.999)" fill="#4aafff"/>
  </g>
</svg>
