<svg xmlns="http://www.w3.org/2000/svg" width="114.34" height="163.14" viewBox="0 0 114.34 163.14">
  <path id="Path_102" data-name="Path 102" d="M118.928,218.778H103.5L75.407,99.051a17.239,17.239,0,1,0-16.332,0L30.986,218.778h-15.4a5.5,5.5,0,1,0,0,10.993H118.928a5.5,5.5,0,1,0,0-10.993Zm-37.1-44.22L60.808,162.026l15.9-9.314ZM67.241,77.627A6.245,6.245,0,1,1,61,83.871,6.252,6.252,0,0,1,67.241,77.627Zm0,34.754,6.834,29.128-15.845,9.285ZM53.6,170.528l25.731,15.34L45.274,206.013Zm-8.311,48.251,41.2-24.369L92.2,218.778Zm0,0" transform="translate(-10.086 -66.632)" fill="#404f5b"/>
</svg>
