<svg xmlns="http://www.w3.org/2000/svg" width="236.309" height="42.799" viewBox="0 0 236.309 42.799">
  <g id="Gintaa_Final_Logo" data-name="Gintaa Final Logo" transform="translate(-55.421 -64.736)">
    <path id="Path_108" data-name="Path 108" d="M90.982,70.235a20.355,20.355,0,0,0-14.209-5.5,21.351,21.351,0,1,0,0,42.7,21.09,21.09,0,0,0,14.884-6.14v2.573a3.337,3.337,0,1,0,6.657,0v-.72h0V88.633a3.413,3.413,0,0,0-3.348-3.165l-12.484.007a3.463,3.463,0,0,0-3.576,3.318,3.428,3.428,0,0,0,3.567,3.341l7.338,0A14.487,14.487,0,1,1,87.543,76.6l.887.962a3.682,3.682,0,0,0,5.043.46,3.337,3.337,0,0,0,1.1-2.48,4.234,4.234,0,0,0-1.007-2.587C92.919,72.1,90.982,70.235,90.982,70.235Z" transform="translate(0 0)" fill="#fff"/>
    <path id="Path_109" data-name="Path 109" d="M169.714,70.141a9.024,9.024,0,0,0-2.992-3.813l-.8-.5H165.9a8.656,8.656,0,0,0-8.781.264l-.3.242a8.347,8.347,0,0,0-3.036,3.856l-13.068,32.263a3.164,3.164,0,0,0-.31,1.431,3.512,3.512,0,0,0,3.5,3.516,3.429,3.429,0,0,0,3.216-2.151l3.254-8.033h22.776l3.179,7.824a3.278,3.278,0,0,0,3.234,2.361,3.534,3.534,0,0,0,3.48-3.58v-.62Zm-9.469,2.66a2.016,2.016,0,0,1,.522-.7l.33-.169a1.63,1.63,0,0,1,1.415.023l.258.185a1.336,1.336,0,0,1,.454.681L170.3,90.2H153.21Z" transform="translate(108.688 0.028)" fill="#fff"/>
    <path id="Path_110" data-name="Path 110" d="M122.383,64.875a3.466,3.466,0,0,0-3.494,3.514V97.8L95.863,67.138a5.453,5.453,0,0,0-4.569-2.4A5.741,5.741,0,0,0,85.6,70.525v33.321a3.491,3.491,0,1,0,6.983,0V74.44l23.027,30.668a5.477,5.477,0,0,0,4.572,2.391,5.745,5.745,0,0,0,5.688-5.789V68.392A3.466,3.466,0,0,0,122.383,64.875Z" transform="translate(38.604 0.006)" fill="#fff"/>
    <path id="Path_111" data-name="Path 111" d="M81.286,64.757a3.459,3.459,0,0,0-3.32,3.573v35.6a3.339,3.339,0,1,0,6.661,0V68.33A3.427,3.427,0,0,0,81.286,64.757Z" transform="translate(28.834 0.027)" fill="#fff"/>
    <path id="Path_112" data-name="Path 112" d="M143.06,68.313a3.58,3.58,0,0,0-3.573-3.576H108.964a3.61,3.61,0,0,0,0,7.22h11.65V103.8a3.609,3.609,0,0,0,7.217,0V71.957h11.655A3.615,3.615,0,0,0,143.06,68.313Z" transform="translate(63.901 0.001)" fill="#fff"/>
    <path id="Path_113" data-name="Path 113" d="M145.786,66.31l-.807-.5h-.025a8.648,8.648,0,0,0-8.774.262l-.31.244a8.236,8.236,0,0,0-3.026,3.854l-13.09,32.279a3.281,3.281,0,0,0-.289,1.418,3.507,3.507,0,0,0,3.489,3.516,3.4,3.4,0,0,0,3.216-2.154l3.257-8.029H152.2l3.184,7.817a3.268,3.268,0,0,0,3.238,2.368,3.537,3.537,0,0,0,3.482-3.58v-.62L148.769,70.122A9.04,9.04,0,0,0,145.786,66.31ZM139.3,72.791a2.014,2.014,0,0,1,.54-.716l.31-.164a1.61,1.61,0,0,1,1.418.023l.258.182a1.376,1.376,0,0,1,.463.681l7.069,17.377H132.272Z" transform="translate(81.909 0.001)" fill="#fff"/>
  </g>
</svg>
