<svg xmlns="http://www.w3.org/2000/svg" width="142.914" height="142.28" viewBox="0 0 142.914 142.28">
  <path id="Gintaa-icon" d="M132.295,69.925l-41.6.028c-6.56,0-11.9,4.972-11.9,11.052,0,6.234,5.235,11.123,11.887,11.123l24.451.014a48.271,48.271,0,1,1-7.581-51.764l2.957,3.208c4.4,4.887,12.26,5.622,16.787,1.527a11.046,11.046,0,0,0,3.681-8.263,12.74,12.74,0,0,0-3.376-8.623l-6.012-6.72-2.443-2.5-.125.181C106.188,7.191,89.888.859,71.671.859a71.127,71.127,0,1,0,0,142.254,70.251,70.251,0,0,0,49.584-20.452l.015,8.565c0,6.569,4.942,11.913,11.039,11.913,6.234,0,11.122-5.233,11.122-11.913v-2.4h.026V80.462C143.167,74.77,138.557,70.355,132.295,69.925Z" transform="translate(-0.543 -0.859)" fill="#fff"/>
</svg>
